Genre:Action | Biography | Drama
Language:English  http://www.imdb.com/title/tt0977855/
Source:DVDScr.T0XiC-iNK Thx.


Format : MPEG-4
Format profile : Base Media
Codec ID : isom
File size : 1.04 GiB
Duration : 1h 47mn
Overall bit rate : 1 384 Kbps
Movie name : Fair.Game.2010.DvDScr.x264.Feel-Free


Video
Format settings, CABAC : Yes
Format settings, ReFrames : 4 frames
Codec ID : avc1
Codec ID/Info : Advanced Video Coding
Duration : 1h 47mn
Bit rate mode : Variable
Bit rate : 1 000 Kbps
Width : 720 pixels
Height : 304 pixels
Display aspect ratio : 2.35:1
Frame rate mode : Constant
Frame rate : 23.976 fps
Color space : YUV
Chroma subsampling : 4:2:0
Bit depth : 8 bits
Scan type : Progressive
Bits/(Pixel*Frame) : 0.191
Stream size : 763 MiB (72%)
Writing library : x264

Audio
ID : 2
Format : AAC
Format/Info : Advanced Audio Codec
Format version : Version 4
Format profile : LC
Codec ID : 40
Duration : 1h 47mn
Bit rate mode : Variable
Bit rate : 384 Kbps
Channel(s) : 6 channels
Channel positions : Front: L C R, Side: L R, LFE
Sampling rate : 48.0 KHz
Stream size : 295 MiB (28%)


Plot:
Plame's status as a CIA agent was revealed by White House officials allegedly out to discredit her husband
